# ProBuilder 5.0.6
# https://unity3d.com/unity/features/worldbuilding/probuilder
# 12/1/2022 12:11:11 PM

mtllib ./test_basket_cube.mtl
o test basket cube

g Cube
v 0 0 1
v -1 0 1
v 0 1 1
v -1 1 1
v -1 0 0
v -1 1 0
v -0.7967069 0.2032931 0.6686873
v -0.2032931 0.2032931 0.6686873
v -0.7967069 0.7967069 0.6686873
v -0.2032931 0.7967069 0.6686873
v 0 0 0
v 0 1 0
v -0.649555 1 0.243708
v -0.7413701 1 0.693274
v -0.2339073 1 0.2691388
v -0.3137714 1 0.6901134

vt 0 0
vt -1 0
vt 0 1
vt -1 1
vt 1 0
vt 1 1
vt 0.7967069 0.2032931
vt 0.2032931 0.2032931
vt 0.7967069 0.7967069
vt 0.2032931 0.7967069
vt 0.649555 0.243708
vt 0.7413701 0.693274
vt 0.2339073 0.2691388
vt 0.3137714 0.6901134
vt 0.7967069 0.6989068
vt 0.2032931 0.6989068
vt 0.2908729 1
vt 0.2908729 0
vt -0.408034 0.7967069
vt -0.408034 0.2032931
vt 0.6989069 0.2032931
vt 0.6989069 0.7967069
vt 0 -0.2908729
vt -1 -0.2908729
vt -0.2032931 0.408034
vt -0.7967069 0.408034

vn 0 0 1
vn -1 0 0
vn 0 0 -1
vn 1 0 0
vn 0 -1 0
vn 0 1 0
vn 0 0.9567617 -0.2908729
vn 0.9567617 0 -0.2908729
vn -0.9567617 0 -0.2908729
vn 0 -0.9567617 -0.2908729

usemtl Collider
f 14/12/6 6/5/6 4/6/6
f 14/12/6 13/11/6 6/5/6
f 13/11/6 12/1/6 6/5/6
f 15/13/6 12/1/6 13/11/6
f 3/3/6 12/1/6 15/13/6
f 3/3/6 15/13/6 16/14/6
f 16/14/6 14/12/6 4/6/6
f 3/3/6 16/14/6 4/6/6
f 4/4/1 2/2/1 1/1/1
f 1/1/1 3/3/1 4/4/1
f 6/3/2 5/1/2 2/5/2
f 2/5/2 4/6/2 6/3/2
f 10/10/3 8/8/3 7/7/3
f 7/7/3 9/9/3 10/10/3
f 3/4/4 1/2/4 11/1/4
f 11/1/4 12/3/4 3/4/4
f 2/4/5 5/2/5 11/1/5
f 11/1/5 1/3/5 2/4/5
f 8/16/7 11/1/7 5/5/7
f 5/5/7 7/15/7 8/16/7
f 7/20/8 5/18/8 6/17/8
f 6/17/8 9/19/8 7/20/8
f 10/22/9 12/3/9 11/1/9
f 11/1/9 8/21/9 10/22/9
f 9/26/10 6/24/10 12/23/10
f 12/23/10 10/25/10 9/26/10

